<svg width="79" height="40" viewBox="0 0 79 40" fill="none" xmlns="http://www.w3.org/2000/svg">
<path d="M0.320312 0H74.375C76.5841 0 78.375 1.79086 78.375 4V36C78.375 38.2091 76.5841 40 74.375 40H0.320312V0Z" fill="#76797F" fill-opacity="0.05"/>
<g clip-path="url(#clip0_521_10354)">
<path fill-rule="evenodd" clip-rule="evenodd" d="M42.8438 16.5C42.8438 19.2614 40.6052 21.5 37.8438 21.5C35.0823 21.5 32.8438 19.2614 32.8438 16.5C32.8438 13.7386 35.0823 11.5 37.8438 11.5C40.6052 11.5 42.8438 13.7386 42.8438 16.5ZM41.6835 21.7451C40.6077 22.5341 39.2801 23 37.8438 23C34.2539 23 31.3438 20.0899 31.3438 16.5C31.3438 12.9102 34.2539 10 37.8438 10C41.4337 10 44.3438 12.9102 44.3438 16.5C44.3438 17.9364 43.8778 19.264 43.0889 20.3398L47.0527 24.3036C47.4408 24.6917 47.4408 25.3209 47.0527 25.709C46.6646 26.097 46.0354 26.097 45.6474 25.709L41.6835 21.7451Z" fill="black"/>
</g>
<defs>
<clipPath id="clip0_521_10354">
<rect width="24" height="24" fill="white" transform="translate(27.3438 6)"/>
</clipPath>
</defs>
</svg>
