<svg width="25" height="24" viewBox="0 0 25 24" fill="none" xmlns="http://www.w3.org/2000/svg">
<rect x="4.49219" y="10" width="16" height="10" rx="1" fill="#5C5CD6"/>
<rect x="5.49219" y="11" width="14" height="8" rx="1" fill="#EAEAF9"/>
<rect x="4.49219" y="10" width="16" height="10" rx="1" stroke="#5C5CD6" stroke-width="2"/>
<path d="M5.49219 5C5.49219 2.79086 7.28305 1 9.49219 1H15.4922C17.7013 1 19.4922 2.79086 19.4922 5C19.4922 5 18.5968 5 17.4922 5H7.49219C6.38762 5 5.49219 5 5.49219 5ZM19.4922 5H5.49219H19.4922ZM5.49219 5V3V5ZM19.4922 3V5V3Z" fill="#5C5CD6" mask="url(#path-3-inside-1_521_10345)"/>
<mask id="path-5-inside-2_521_10345" fill="white">
<path d="M4.49219 8C4.49219 6.89543 5.38762 6 6.49219 6H18.4922C19.5968 6 20.4922 6.89543 20.4922 8H4.49219Z"/>
</mask>
<path d="M4.49219 8C4.49219 6.89543 5.38762 6 6.49219 6H18.4922C19.5968 6 20.4922 6.89543 20.4922 8H4.49219Z" fill="#5C5CD6"/>
<path d="M4.49219 8C4.49219 5.79086 6.28305 4 8.49219 4H16.4922C18.7013 4 20.4922 5.79086 20.4922 8C20.4922 8 19.5968 8 18.4922 8H6.49219C5.38762 8 4.49219 8 4.49219 8ZM20.4922 8H4.49219H20.4922ZM4.49219 8V6V8ZM20.4922 6V8V6Z" fill="#5C5CD6" mask="url(#path-5-inside-2_521_10345)"/>
</svg>
