<svg width="215" height="32" viewBox="0 0 215 32" fill="none" xmlns="http://www.w3.org/2000/svg">
<g clip-path="url(#clip0_521_10327)">
<g clip-path="url(#clip1_521_10327)">
<mask id="mask0_521_10327" style="mask-type:luminance" maskUnits="userSpaceOnUse" x="0" y="0" width="215" height="32">
<path d="M215 0H0V32H215V0Z" fill="white"/>
</mask>
<g mask="url(#mask0_521_10327)">
<path d="M184.63 9.94896H189.047L183.466 16.2636L189.509 22.9522H185.081L179.25 16.5847V22.9522H175.5V5.92383H179.25V16.0414L184.63 9.94896Z" fill="#7000FF"/>
<path d="M167.102 12.7426V9.94508H163.352V22.9483H167.102V17.2051C167.102 14.9791 168.718 13.5504 170.774 13.5504H173.226V9.66992H171.385C169.106 9.6805 167.458 11.6137 167.102 12.7426Z" fill="#7000FF"/>
<path fill-rule="evenodd" clip-rule="evenodd" d="M158.499 9.94541V18.3837C158.499 19.5196 158.82 19.7983 159.579 19.7948H160.172V22.9486H158.023C157.31 22.9849 156.606 22.7832 156.02 22.3751C155.434 21.967 155.001 21.3757 154.788 20.6944C153.875 22.3242 151.966 23.252 149.885 23.252C145.948 23.252 143.429 19.8477 143.51 16.4329C143.51 13.0568 145.736 9.69141 150.072 9.69141C152.59 9.69141 154.009 10.792 154.816 11.995L154.788 9.94541H158.499ZM147.13 16.4717C147.13 18.5283 148.735 19.9994 150.851 19.9994C153.053 19.9994 154.644 18.5107 154.644 16.4717C154.644 14.4326 153.053 12.9898 150.851 12.9898C148.721 12.9898 147.13 14.415 147.13 16.4717Z" fill="#7000FF"/>
<path d="M130.334 12.117C131.223 10.66 133.011 9.69336 135.382 9.69336C139.414 9.69336 141.347 12.2369 141.347 15.3872V22.94H137.597V15.9057C137.597 14.4206 136.736 13.0835 134.934 13.0835C133.131 13.0835 132.242 14.3535 132.242 15.8634V22.9612H128.478V15.874C128.478 14.3641 127.533 13.0941 125.719 13.0941C123.906 13.0941 123.109 14.4206 123.109 15.9163V22.9506H119.359V15.3872C119.359 12.2369 121.412 9.69336 125.43 9.69336C127.469 9.69336 129.43 10.66 130.334 12.117Z" fill="#7000FF"/>
<path fill-rule="evenodd" clip-rule="evenodd" d="M196.821 9.69336C192.5 9.69336 189.766 12.1028 189.766 16.4596C189.766 20.8163 192.496 23.254 196.856 23.254C203.115 23.254 203.499 19.0207 203.499 19.0207H199.379C199.379 19.0207 199.061 20.3436 196.86 20.3436C194.461 20.3436 193.72 18.9008 193.72 17.472H203.739C203.788 17.1378 203.815 16.8008 203.82 16.4631C203.82 12.1028 201.076 9.69336 196.821 9.69336ZM193.773 15.1755C193.773 14.1172 194.479 12.6073 196.821 12.6073C199.164 12.6073 199.816 14.1172 199.816 15.1755H193.773Z" fill="#7000FF"/>
<path d="M215.004 9.70182V12.7216L210.919 12.7322V17.3182C210.919 19.1315 211.399 19.6994 212.683 19.6994H215.004V22.9837H212.683C208.947 22.9837 207.183 21.4492 207.183 17.8086V12.7357H205.289V10.5767L208.908 7.12305H210.933V9.70182H215.004Z" fill="#7000FF"/>
<path d="M103.628 9.67969C101.254 9.67969 99.4653 10.6463 98.5763 12.1173C97.6767 10.6463 95.7153 9.67969 93.6728 9.67969C89.6688 9.67969 87.6016 12.2373 87.6016 15.3875V22.951H91.3551V15.9167C91.3551 14.4068 92.1488 13.0945 93.9656 13.0945C95.7824 13.0945 96.7348 14.3645 96.7348 15.8744V22.9616H100.485V15.8638C100.485 14.3539 101.374 13.0839 103.177 13.0839C104.98 13.0839 105.84 14.4068 105.84 15.9061V22.9404H109.59V15.3875C109.59 12.2373 107.657 9.67969 103.628 9.67969Z" fill="#7000FF"/>
<path d="M68.3021 9.93359V13.098L60.8127 19.7865H68.7501V22.9509H55.8281V19.7865L63.3315 13.098H56.1209V9.93359H68.3021Z" fill="#7000FF"/>
<path d="M78.0895 19.7735C79.8251 19.7735 80.9893 18.8175 80.9893 16.7538V9.94531H84.7428V16.8949C84.7428 21.4351 80.9469 23.1989 78.1001 23.1989C75.2532 23.1989 71.4609 21.4245 71.4609 16.8949V9.94531H75.225V16.7538C75.225 18.8175 76.3538 19.7735 78.0895 19.7735Z" fill="#7000FF"/>
<path d="M46.7223 19.7735C48.4438 19.7735 49.6115 18.8175 49.6115 16.7538V9.94531H53.3615V16.8949C53.3615 21.4351 49.5586 23.1989 46.7364 23.1989C43.8719 23.1989 40.0938 21.4245 40.0938 16.8949V9.94531H43.8472V16.7538C43.8472 18.8175 45.0008 19.7735 46.7223 19.7735Z" fill="#7000FF"/>
<path d="M31.993 16.0053C31.9923 19.1704 31.0532 22.2643 29.2946 24.8955C27.536 27.5268 25.0368 29.5772 22.1132 30.7875C19.1895 31.9978 15.9727 32.3135 12.8697 31.6949C9.76659 31.0762 6.91665 29.5508 4.68028 27.3117C2.44391 25.0726 0.921575 22.2204 0.305829 19.1158C-0.309917 16.0111 0.00858057 12.7936 1.22104 9.87001C2.4335 6.94646 4.48546 4.44826 7.11738 2.6914C9.7493 0.934529 12.843 -0.00208978 16.0071 3.5011e-06C18.1081 -0.000924639 20.1888 0.412484 22.13 1.21658C24.0713 2.02068 25.835 3.1997 27.3204 4.68621C28.8057 6.17271 29.9836 7.93754 30.7865 9.87977C31.5895 11.822 32.0019 13.9035 32 16.0053H31.993ZM17.8338 5.5597C17.2343 5.50326 16.6207 5.47856 16 5.47856C15.3793 5.47856 14.7692 5.50326 14.1697 5.5597V14.0933H17.8338V5.5597ZM26.2976 10.5338C24.9622 10.0949 23.5976 9.7507 22.2138 9.5037V16.672C22.2138 21.8296 20.0273 24.5424 15.9965 24.5424C11.9656 24.5424 9.7862 21.8296 9.7862 16.672V9.5037C8.40139 9.75113 7.03562 10.0953 5.69892 10.5338V16.7108C5.6736 18.0799 5.92128 19.4402 6.4275 20.7124C6.93371 21.9845 7.68831 23.143 8.6472 24.1201C9.60609 25.0973 10.7501 25.8734 12.0122 26.4033C13.2744 26.9331 14.6295 27.206 15.9983 27.206C17.3671 27.206 18.7221 26.9331 19.9843 26.4033C21.2465 25.8734 22.3904 25.0973 23.3493 24.1201C24.3082 23.143 25.0628 21.9845 25.569 20.7124C26.0752 19.4402 26.3229 18.0799 26.2976 16.7108V10.5338Z" fill="#7000FF"/>
</g>
</g>
</g>
<defs>
<clipPath id="clip0_521_10327">
<rect width="215" height="32" fill="white"/>
</clipPath>
<clipPath id="clip1_521_10327">
<rect width="215" height="32" fill="white"/>
</clipPath>
</defs>
</svg>
