<svg width="32" height="32" viewBox="0 0 32 32" fill="none" xmlns="http://www.w3.org/2000/svg">
<path d="M31.993 16.0053C31.9923 19.1704 31.0532 22.2643 29.2946 24.8955C27.536 27.5268 25.0368 29.5772 22.1132 30.7875C19.1895 31.9978 15.9727 32.3135 12.8697 31.6949C9.76659 31.0762 6.91665 29.5508 4.68028 27.3117C2.44391 25.0726 0.921575 22.2204 0.305829 19.1158C-0.309917 16.0111 0.00858057 12.7936 1.22104 9.87001C2.4335 6.94646 4.48546 4.44826 7.11738 2.6914C9.7493 0.934529 12.843 -0.00208978 16.0071 3.5011e-06C18.1081 -0.000924639 20.1888 0.412484 22.13 1.21658C24.0713 2.02068 25.835 3.1997 27.3204 4.68621C28.8057 6.17271 29.9836 7.93754 30.7865 9.87977C31.5895 11.822 32.0019 13.9035 32 16.0053H31.993ZM17.8338 5.5597C17.2343 5.50326 16.6207 5.47856 16 5.47856C15.3793 5.47856 14.7692 5.50326 14.1697 5.5597V14.0933H17.8338V5.5597ZM26.2976 10.5338C24.9622 10.0949 23.5976 9.7507 22.2138 9.5037V16.672C22.2138 21.8296 20.0273 24.5424 15.9965 24.5424C11.9656 24.5424 9.7862 21.8296 9.7862 16.672V9.5037C8.40139 9.75113 7.03562 10.0953 5.69892 10.5338V16.7108C5.6736 18.0799 5.92128 19.4402 6.4275 20.7124C6.93371 21.9845 7.68831 23.143 8.6472 24.1201C9.60609 25.0973 10.7501 25.8734 12.0122 26.4033C13.2744 26.9331 14.6295 27.206 15.9983 27.206C17.3671 27.206 18.7221 26.9331 19.9843 26.4033C21.2465 25.8734 22.3904 25.0973 23.3493 24.1201C24.3082 23.143 25.0628 21.9845 25.569 20.7124C26.0752 19.4402 26.3229 18.0799 26.2976 16.7108V10.5338Z" fill="#7000FF"/>
</svg>
