<svg width="21" height="18" viewBox="0 0 21 18" fill="none" xmlns="http://www.w3.org/2000/svg">
<path fill-rule="evenodd" clip-rule="evenodd" d="M5.89844 1.5C3.66779 1.5 1.89844 3.30906 1.89844 5.5C1.89844 6.4282 2.27528 7.4436 2.94714 8.5105C3.61536 9.5716 4.53992 10.6274 5.54971 11.6219C6.95613 13.007 8.43024 14.1879 9.56924 15.1003C9.87184 15.3427 10.1507 15.5661 10.3984 15.7694C10.6461 15.5661 10.925 15.3427 11.2276 15.1003C12.3666 14.1879 13.8407 13.007 15.2471 11.6219C16.2569 10.6274 17.1815 9.5716 17.8497 8.5105C18.5216 7.4436 18.8984 6.4282 18.8984 5.5C18.8984 3.30898 17.1298 1.5 14.8984 1.5C12.7457 1.5 11.4722 3.20226 11.1246 3.74742C10.7873 4.27655 10.0095 4.27653 9.67224 3.74742C9.32464 3.20225 8.05117 1.5 5.89844 1.5ZM0.398438 5.5C0.398438 2.49094 2.82909 0 5.89844 0C8.12987 0 9.62334 1.30207 10.3984 2.21581C11.1735 1.30207 12.667 0 14.8984 0C17.9686 0 20.3984 2.49102 20.3984 5.5C20.3984 6.8218 19.869 8.1189 19.119 9.3098C18.3653 10.5066 17.3524 11.6539 16.2997 12.6906C14.8413 14.1269 13.2064 15.4384 12.0486 16.3672C11.5633 16.7565 11.1618 17.0786 10.8923 17.3144C10.6095 17.5619 10.1873 17.5619 9.90454 17.3144C9.63504 17.0786 9.23354 16.7565 8.74824 16.3672C7.59045 15.4384 5.95556 14.1269 4.49717 12.6906C3.44446 11.6539 2.43152 10.5066 1.67786 9.3098C0.927847 8.1189 0.398438 6.8218 0.398438 5.5Z" fill="#141415"/>
</svg>
