<svg width="17" height="19" viewBox="0 0 17 19" fill="none" xmlns="http://www.w3.org/2000/svg">
<path fill-rule="evenodd" clip-rule="evenodd" d="M8.375 0C6.16586 0 4.375 1.79086 4.375 4V5C4.375 7.2091 6.16586 9 8.375 9C10.5841 9 12.375 7.2091 12.375 5V4C12.375 1.79086 10.5841 0 8.375 0ZM5.875 4C5.875 2.61929 6.9943 1.5 8.375 1.5C9.7557 1.5 10.875 2.61929 10.875 4V5C10.875 6.38071 9.7557 7.5 8.375 7.5C6.9943 7.5 5.875 6.38071 5.875 5V4ZM1.87732 16.3686C2.34821 13.2577 5.39303 11.5 8.3772 11.5C11.3608 11.5 14.406 13.2577 14.8769 16.3686C14.8796 16.3866 14.8775 16.3972 14.875 16.4048C14.872 16.4137 14.8653 16.4269 14.8509 16.442C14.8203 16.4741 14.7644 16.5039 14.6921 16.5039H2.06218C1.98987 16.5039 1.93398 16.4741 1.90338 16.442C1.88894 16.4269 1.88226 16.4137 1.87927 16.4048C1.87674 16.3972 1.87461 16.3865 1.87732 16.3686ZM8.3772 10C4.94821 10 1.01537 12.0404 0.394217 16.1441C0.231237 17.2208 1.13227 18.0039 2.06218 18.0039H14.6921C15.622 18.0039 16.523 17.2208 16.36 16.1441C15.7388 12.0404 11.8056 10 8.3772 10Z" fill="black"/>
</svg>
