<svg width="17" height="20" viewBox="0 0 17 20" fill="none" xmlns="http://www.w3.org/2000/svg">
<path fill-rule="evenodd" clip-rule="evenodd" d="M5.42188 4.5C5.42188 2.88779 6.66208 1.5 8.42188 1.5C10.1817 1.5 11.4219 2.88779 11.4219 4.5V5.5H5.42188V4.5ZM3.92188 7V9.5H5.42188V7H11.4219V9.5H12.9219V7H14.9219V17.75C14.9219 18.1642 14.5861 18.5 14.1719 18.5H2.67188C2.25767 18.5 1.92188 18.1642 1.92188 17.75V7H3.92188ZM3.92188 5.5V4.5C3.92188 2.11221 5.78171 0 8.42188 0C11.0621 0 12.9219 2.11221 12.9219 4.5V5.5H15.6719H16.4219V6.25V17.75C16.4219 18.9926 15.4145 20 14.1719 20H2.67188C1.42923 20 0.421875 18.9926 0.421875 17.75V6.25V5.5H1.17188H3.92188Z" fill="#141415"/>
</svg>
